<svg width="252" height="199" viewBox="0 0 252 199" fill="none" xmlns="http://www.w3.org/2000/svg">
<g clip-path="url(#clip0_84_140)">
<path d="M252 4.14111H100.874V75.819H252V4.14111Z" fill="#E6E6E6"/>
<path d="M247.679 10.2876H105.196V70.0907H247.679V10.2876Z" fill="white"/>
<path d="M251.936 0H100.81V6.41724H251.936V0Z" fill="black"/>
<path d="M105.581 4.96281C106.238 4.96281 106.771 4.43029 106.771 3.7734C106.771 3.1165 106.238 2.58398 105.581 2.58398C104.924 2.58398 104.391 3.1165 104.391 3.7734C104.391 4.43029 104.924 4.96281 105.581 4.96281Z" fill="white"/>
<path d="M110.098 4.96281C110.755 4.96281 111.288 4.43029 111.288 3.7734C111.288 3.1165 110.755 2.58398 110.098 2.58398C109.44 2.58398 108.908 3.1165 108.908 3.7734C108.908 4.43029 109.44 4.96281 110.098 4.96281Z" fill="white"/>
<path d="M114.615 4.96281C115.272 4.96281 115.805 4.43029 115.805 3.7734C115.805 3.1165 115.272 2.58398 114.615 2.58398C113.957 2.58398 113.425 3.1165 113.425 3.7734C113.425 4.43029 113.957 4.96281 114.615 4.96281Z" fill="white"/>
<path d="M214.135 19.9648H190.446V60.4146H214.135V19.9648Z" fill="#F2F2F2"/>
<path d="M186.521 19.9639H138.739V31.0981H186.521V19.9639Z" fill="black"/>
<path d="M186.521 34.1992H138.739V46.1791H186.521V34.1992Z" fill="#F2F2F2"/>
<path d="M186.521 49.2798H138.739V60.414H186.521V49.2798Z" fill="#F2F2F2"/>
<path d="M72.1021 119.602C72.1066 118.782 71.9378 117.97 71.6067 117.22C71.2755 116.469 70.7895 115.798 70.1805 115.248C69.5715 114.699 68.8532 114.284 68.0727 114.031C67.2922 113.779 66.4671 113.694 65.6515 113.782C65.3934 113.811 65.1377 113.858 64.8862 113.923L45.1776 97.0376L46.3554 90.6925L36.6413 87.5459L33.7125 97.7144C33.3661 98.9347 33.4225 100.234 33.8735 101.42C34.3244 102.606 35.1459 103.615 36.2159 104.297L60.4608 119.624C60.461 119.815 60.4709 120.005 60.4906 120.195C60.5792 121.01 60.8391 121.798 61.2533 122.505C61.6675 123.213 62.2267 123.826 62.8942 124.303C63.5618 124.779 64.3226 125.11 65.1268 125.272C65.931 125.435 66.7605 125.426 67.5609 125.245C67.7936 125.194 68.0228 125.128 68.2471 125.047C69.3692 124.642 70.3402 123.903 71.0294 122.929C71.7185 121.955 72.0929 120.794 72.1021 119.602Z" fill="#9F616A"/>
<path d="M23.1042 139.185H48.515C48.515 139.915 74.7039 140.508 74.7039 140.508C75.1149 140.817 75.4896 141.172 75.8206 141.566C76.8153 142.752 77.359 144.25 77.3557 145.798V146.856C77.3551 148.61 76.6578 150.291 75.4172 151.531C74.1766 152.771 72.4942 153.468 70.7397 153.469H23.1042C21.35 153.467 19.6681 152.77 18.4276 151.53C17.1872 150.291 16.4897 148.609 16.4882 146.856V145.798C16.4906 144.045 17.1884 142.364 18.4286 141.125C19.6689 139.885 21.3503 139.187 23.1042 139.185Z" fill="#3F3D56"/>
<path d="M50.7453 153.206H43.8646V197.645H50.7453V153.206Z" fill="#3F3D56"/>
<path d="M70.3288 198.198C70.3288 199.03 59.9022 198.52 47.0403 198.52C34.1784 198.52 23.7518 199.03 23.7518 198.198C23.7518 197.366 34.1784 190.768 47.0403 190.768C59.9022 190.768 70.3288 197.366 70.3288 198.198Z" fill="#3F3D56"/>
<path d="M64.1175 192.195L70.606 192.194L73.6931 175.373L64.1162 175.373L64.1175 192.195Z" fill="#9F616A"/>
<path d="M62.4624 198.482L83.3853 198.481V198.216C83.3853 197.148 83.1747 196.089 82.7654 195.102C82.3562 194.114 81.7563 193.217 81.0001 192.461C80.2439 191.705 79.3462 191.105 78.3582 190.696C77.3702 190.287 76.3112 190.077 75.2418 190.077H75.2409L62.462 190.077L62.4624 198.482Z" fill="#2F2E41"/>
<path d="M73.8225 181.763L86.7587 152.768C87.8388 150.324 87.9582 147.564 87.0932 145.036C86.2282 142.508 84.4423 140.398 82.0912 139.128L54.032 124.088L41.2281 123L29.4173 121.927L29.3321 122.071C29.2232 122.255 26.6838 126.639 28.4003 131.446C29.7024 135.093 33.0892 137.941 38.4666 139.912C51.0182 144.512 65.5178 148.444 71.1691 149.92C71.4189 149.984 71.6523 150.1 71.854 150.26C72.0557 150.421 72.2212 150.622 72.3395 150.851C72.4581 151.077 72.5286 151.326 72.5464 151.581C72.5643 151.835 72.5292 152.091 72.4434 152.332L60.4252 179.32C60.2997 179.662 60.2545 180.029 60.2931 180.392C60.3317 180.754 60.4531 181.103 60.6479 181.411C60.8427 181.719 61.1058 181.979 61.4167 182.169C61.7277 182.36 62.0783 182.476 62.4414 182.51L71.4215 183.163C71.4978 183.171 71.5737 183.174 71.6492 183.174C72.1091 183.174 72.5591 183.041 72.9448 182.79C73.3305 182.54 73.6354 182.183 73.8225 181.763Z" fill="#CBCBCB"/>
<path d="M59.8831 192.195L66.3715 192.194L69.4589 175.373L59.8821 175.373L59.8831 192.195Z" fill="#9F616A"/>
<path d="M58.2282 198.482L79.151 198.481V198.216C79.151 197.148 78.9404 196.089 78.5312 195.102C78.1219 194.114 77.5221 193.217 76.7659 192.461C76.0097 191.705 75.112 191.105 74.1239 190.696C73.1359 190.287 72.077 190.077 71.0075 190.077H71.0067L58.2278 190.077L58.2282 198.482Z" fill="#2F2E41"/>
<path d="M69.0589 183.35L81.9951 154.355C83.0752 151.911 83.1946 149.15 82.3296 146.623C81.4646 144.095 79.6787 141.985 77.3276 140.714L49.2684 125.675L36.4644 124.587L27.2137 123.785L27.2149 123.658C27.106 123.842 24.5666 128.226 26.2831 133.033C27.5852 136.679 28.3256 139.528 33.703 141.499C46.2547 146.099 60.7542 150.03 66.4055 151.507C66.6553 151.571 66.8887 151.687 67.0904 151.847C67.2921 152.008 67.4576 152.209 67.5759 152.438C67.6945 152.664 67.765 152.913 67.7828 153.167C67.8007 153.422 67.7656 153.678 67.6798 153.919L55.6616 180.907C55.5361 181.249 55.4909 181.616 55.5295 181.978C55.5681 182.341 55.6895 182.69 55.8843 182.998C56.0791 183.306 56.3422 183.565 56.6531 183.756C56.9641 183.946 57.3147 184.063 57.6778 184.097L66.6579 184.75C66.7342 184.757 66.8101 184.761 66.8856 184.761C67.3455 184.761 67.7955 184.628 68.1812 184.377C68.5669 184.127 68.8718 183.77 69.0589 183.35Z" fill="#CBCBCB"/>
<path d="M44.68 124.314C45.3003 123.875 54.2071 128.546 55.795 124.843C48.385 106.327 53.4913 98.331 48.9523 87.7128C48.1528 85.8815 46.9485 84.255 45.4298 82.9557C43.911 81.6565 42.1174 80.7182 40.1837 80.2113L28.4074 79.6172L28.3464 79.6466C25.689 80.9476 23.5218 83.0699 22.1662 85.6989C20.8105 88.3279 20.3386 91.3236 20.8204 94.2418C20.8623 105.798 27.7797 114.611 25.3609 122.993C25.2595 123.343 25.2299 123.71 25.2739 124.072C25.3179 124.435 25.4346 124.784 25.617 125.1C25.7939 125.405 26.0315 125.671 26.3151 125.881C26.5987 126.092 26.9224 126.241 27.2661 126.322L42.8157 124.248C43.1789 124.335 43.5564 124.343 43.923 124.272C44.2896 124.201 44.6368 124.053 44.9416 123.837L44.68 124.314Z" fill="#2F2E41"/>
<path d="M32.3375 75.2211C39.5171 75.2211 45.3373 69.4037 45.3373 62.2275C45.3373 55.0513 39.5171 49.2339 32.3375 49.2339C25.158 49.2339 19.3378 55.0513 19.3378 62.2275C19.3378 69.4037 25.158 75.2211 32.3375 75.2211Z" fill="#9F616A"/>
<path d="M28.1968 74.1536C28.8875 74.4557 30.302 68.9547 29.6684 67.8544C28.7261 66.2181 28.7818 66.2299 28.1563 65.1473C27.5308 64.0648 27.3908 62.5831 28.2009 61.6305C29.0109 60.678 30.8854 60.8044 31.2551 61.9986C31.0172 59.7303 33.262 57.9068 35.4856 57.3944C37.7091 56.882 40.0546 57.2001 42.2904 56.7441C44.8852 56.2149 47.5849 54.0409 46.5497 51.1889C46.372 50.7141 46.106 50.2771 45.7658 49.9012C44.5696 48.5569 42.8964 47.983 41.2605 47.4279C37.8571 46.2734 34.3607 45.1043 30.769 45.2317C24.8674 45.4411 19.289 49.5188 17.3007 55.0766C17.0532 55.7701 16.8614 56.4822 16.7272 57.2062C15.4944 63.8319 19.3438 70.3674 25.596 72.8905L28.1968 74.1536Z" fill="#2F2E41"/>
<path d="M96.3698 95.0484L97.8605 103.896C97.8771 103.994 97.8663 104.096 97.8291 104.189L86.1337 133.398C86.0874 133.513 86.0028 133.61 85.894 133.671C85.7853 133.731 85.6589 133.753 85.536 133.732C85.4132 133.711 85.3012 133.649 85.2188 133.555C85.1365 133.462 85.0887 133.343 85.0834 133.218L84.588 121.481C84.5847 121.403 84.5982 121.325 84.6276 121.253L95.3277 94.9338C95.3723 94.824 95.4516 94.7318 95.5534 94.6711C95.6553 94.6104 95.7742 94.5845 95.8921 94.5975C96.0099 94.6105 96.1204 94.6615 96.2066 94.7429C96.2928 94.8243 96.3501 94.9315 96.3698 95.0484Z" fill="#3F3D56"/>
<path d="M95.5418 95.7275L96.9584 103.328L86.5797 129.983L85.2322 121.408L95.5418 95.7275Z" fill="black"/>
<path d="M50.1331 133.262C50.3885 134.258 83.9151 135.337 84.2628 135.035C84.5747 134.649 84.845 134.231 85.0692 133.788C85.4205 133.161 85.7459 132.532 85.7459 132.532L85.1948 121.934L52.1687 118.406C52.1687 118.406 50.7076 127.25 50.2489 131.313C50.1453 131.957 50.1065 132.61 50.1331 133.262Z" fill="#3F3D56"/>
<path opacity="0.1" d="M80.8739 123.056L80.8769 132.186L66.2695 131.148L66.9159 122.063L80.8739 123.056Z" fill="black"/>
<path opacity="0.1" d="M61.8391 124.637L61.9274 124.626L61.2377 128.508L53.1224 127.931L53.3995 124.038L61.8391 124.637Z" fill="black"/>
<path opacity="0.1" d="M50.1331 133.262C50.3885 134.258 83.9151 135.337 84.2628 135.035C84.5747 134.649 84.845 134.231 85.0692 133.788L50.2489 131.313C50.1453 131.957 50.1065 132.61 50.1331 133.262Z" fill="black"/>
<path d="M36.671 117.436L64.9521 122.711C65.0228 122.888 65.1026 123.062 65.1912 123.23C65.5755 123.953 66.1076 124.587 66.7529 125.09C67.3982 125.594 68.1423 125.956 68.9369 126.154C69.7346 126.354 70.566 126.382 71.3754 126.236C72.1848 126.089 72.9536 125.771 73.6302 125.304C74.8559 124.463 75.7132 123.185 76.0265 121.732C76.3399 120.28 76.0854 118.762 75.3154 117.491C74.5454 116.22 73.3181 115.291 71.885 114.896C70.452 114.5 68.9219 114.667 67.6082 115.363C67.3794 115.486 67.1594 115.624 66.9498 115.777L42.3855 107.39L41.1282 101.06L30.9391 101.734L31.9949 112.345C32.123 113.583 32.6471 114.747 33.4894 115.665C34.3318 116.582 35.4475 117.203 36.671 117.436Z" fill="#9F616A"/>
<path d="M30.594 106.467L45.3995 101.603L41.9459 91.6912C41.4873 90.375 40.5779 89.2633 39.3786 88.5524C38.1793 87.8416 36.7672 87.5774 35.3918 87.8065C34.0005 88.0382 32.7379 88.7596 31.8322 89.8404C30.9264 90.9212 30.4372 92.29 30.4528 93.6998L30.594 106.467Z" fill="#2F2E41"/>
<path d="M124.515 199H0.325954C0.239506 199 0.156598 198.966 0.0954696 198.905C0.0343413 198.844 0 198.761 0 198.674C0 198.588 0.0343413 198.505 0.0954696 198.444C0.156598 198.383 0.239506 198.349 0.325954 198.349H124.515C124.601 198.349 124.684 198.383 124.745 198.444C124.806 198.505 124.841 198.588 124.841 198.674C124.841 198.761 124.806 198.844 124.745 198.905C124.684 198.966 124.601 199 124.515 199Z" fill="#CBCBCB"/>
<path d="M172.823 188.735C178.78 191.816 181.428 198.525 181.428 198.525C181.428 198.525 174.419 200.238 168.463 197.157C162.506 194.076 159.858 187.367 159.858 187.367C159.858 187.367 166.867 185.654 172.823 188.735Z" fill="#F1F1F1"/>
<path d="M170.918 190.954C174.473 196.639 181.377 198.735 181.377 198.735C181.377 198.735 182.518 191.614 178.964 185.929C175.409 180.244 168.505 178.148 168.505 178.148C168.505 178.148 167.364 185.27 170.918 190.954Z" fill="#F1F1F1"/>
<path d="M192.313 198.871H155.154C155.068 198.871 154.985 198.837 154.924 198.775C154.863 198.714 154.828 198.631 154.828 198.545C154.828 198.459 154.863 198.376 154.924 198.315C154.985 198.254 155.068 198.219 155.154 198.219H192.313C192.4 198.219 192.482 198.254 192.544 198.315C192.605 198.376 192.639 198.459 192.639 198.545C192.639 198.631 192.605 198.714 192.544 198.775C192.482 198.837 192.4 198.871 192.313 198.871Z" fill="#CBCBCB"/>
</g>
<defs>
<clipPath id="clip0_84_140">
<rect width="252" height="199" fill="white"/>
</clipPath>
</defs>
</svg>
